{
    "asset" : {
        "generator" : "Khronos glTF Blender I/O v3.2.43",
        "version" : "2.0"
    },
    "scene" : 0,
    "scenes" : [
        {
            "name" : "Scene",
            "nodes" : [
                0,
                1,
                2,
                3,
                4
            ]
        }
    ],
    "nodes" : [
        {
            "mesh" : 0,
            "name" : "Cube",
            "scale" : [
                0.6700000166893005,
                0.15000000596046448,
                1
            ]
        },
        {
            "mesh" : 1,
            "name" : "Cylinder",
            "scale" : [
                1,
                0.04000000283122063,
                1
            ],
            "translation" : [
                -0.3752852976322174,
                -0.17662839591503143,
                0.07449916005134583
            ]
        },
        {
            "mesh" : 2,
            "name" : "Circle",
            "scale" : [
                0.22950392961502075,
                0.22950392961502075,
                0.22950392961502075
            ],
            "translation" : [
                -0.496421754360199,
                -0.30606552958488464,
                -0.5976616144180298
            ]
        },
        {
            "mesh" : 3,
            "name" : "Cylinder.001",
            "scale" : [
                2.372194528579712,
                0.03405067324638367,
                2.383544683456421
            ],
            "translation" : [
                0.21789182722568512,
                -0.18080535531044006,
                0.3243102431297302
            ]
        },
        {
            "mesh" : 4,
            "name" : "Cube.003",
            "scale" : [
                5.480000019073486,
                0.949999988079071,
                2.2899999618530273
            ],
            "translation" : [
                0,
                -0.20767678320407867,
                -0.5953924059867859
            ]
        }
    ],
    "materials" : [
        {
            "doubleSided" : true,
            "name" : "Material.002",
            "pbrMetallicRoughness" : {
                "baseColorFactor" : [
                    0.020378796383738518,
                    0.020378796383738518,
                    0.020378796383738518,
                    1
                ],
                "roughnessFactor" : 0.5
            }
        },
        {
            "doubleSided" : true,
            "name" : "Material.003",
            "pbrMetallicRoughness" : {
                "baseColorFactor" : [
                    0.8000000715255737,
                    0.03322277218103409,
                    0.017954936251044273,
                    1
                ],
                "roughnessFactor" : 0.5
            }
        },
        {
            "doubleSided" : true,
            "name" : "Material.013",
            "pbrMetallicRoughness" : {
                "baseColorFactor" : [
                    0.800000011920929,
                    0.800000011920929,
                    0.800000011920929,
                    1
                ],
                "metallicFactor" : 0,
                "roughnessFactor" : 0.5
            }
        },
        {
            "doubleSided" : true,
            "name" : "Material.006",
            "pbrMetallicRoughness" : {
                "baseColorFactor" : [
                    0.14239998161792755,
                    0.14239998161792755,
                    0.14239998161792755,
                    1
                ],
                "roughnessFactor" : 0.5
            }
        },
        {
            "doubleSided" : true,
            "name" : "Material.007",
            "pbrMetallicRoughness" : {
                "baseColorFactor" : [
                    0.30319714546203613,
                    0.30319714546203613,
                    0.30319714546203613,
                    1
                ],
                "roughnessFactor" : 0.5
            }
        },
        {
            "doubleSided" : true,
            "name" : "grillage",
            "pbrMetallicRoughness" : {
                "roughnessFactor" : 0.5
            }
        }
    ],
    "meshes" : [
        {
            "name" : "Cube.011",
            "primitives" : [
                {
                    "attributes" : {
                        "POSITION" : 0,
                        "NORMAL" : 1,
                        "TEXCOORD_0" : 2
                    },
                    "indices" : 3,
                    "material" : 0
                },
                {
                    "attributes" : {
                        "POSITION" : 4,
                        "NORMAL" : 5,
                        "TEXCOORD_0" : 6
                    },
                    "indices" : 7,
                    "material" : 1
                },
                {
                    "attributes" : {
                        "POSITION" : 8,
                        "NORMAL" : 9,
                        "TEXCOORD_0" : 10
                    },
                    "indices" : 11,
                    "material" : 2
                }
            ]
        },
        {
            "name" : "Cylinder.002",
            "primitives" : [
                {
                    "attributes" : {
                        "POSITION" : 12,
                        "NORMAL" : 13,
                        "TEXCOORD_0" : 14
                    },
                    "indices" : 15,
                    "material" : 3
                }
            ]
        },
        {
            "name" : "Circle",
            "primitives" : [
                {
                    "attributes" : {
                        "POSITION" : 16,
                        "NORMAL" : 17,
                        "TEXCOORD_0" : 18
                    },
                    "indices" : 19,
                    "material" : 4
                }
            ]
        },
        {
            "name" : "Cylinder.004",
            "primitives" : [
                {
                    "attributes" : {
                        "POSITION" : 20,
                        "NORMAL" : 21,
                        "TEXCOORD_0" : 22
                    },
                    "indices" : 23,
                    "material" : 5
                }
            ]
        },
        {
            "name" : "Cube.014",
            "primitives" : [
                {
                    "attributes" : {
                        "POSITION" : 24,
                        "NORMAL" : 25,
                        "TEXCOORD_0" : 26
                    },
                    "indices" : 27
                }
            ]
        }
    ],
    "accessors" : [
        {
            "bufferView" : 0,
            "componentType" : 5126,
            "count" : 62,
            "max" : [
                1.0015214681625366,
                -1.0687947273254395,
                1
            ],
            "min" : [
                -0.9999998807907104,
                -3.0687954425811768,
                -1
            ],
            "type" : "VEC3"
        },
        {
            "bufferView" : 1,
            "componentType" : 5126,
            "count" : 62,
            "type" : "VEC3"
        },
        {
            "bufferView" : 2,
            "componentType" : 5126,
            "count" : 62,
            "type" : "VEC2"
        },
        {
            "bufferView" : 3,
            "componentType" : 5123,
            "count" : 222,
            "type" : "SCALAR"
        },
        {
            "bufferView" : 4,
            "componentType" : 5126,
            "count" : 20,
            "max" : [
                1.0235965251922607,
                -1.4438436031341553,
                -0.28676313161849976
            ],
            "min" : [
                0.9107259511947632,
                -2.3201217651367188,
                -0.6574583649635315
            ],
            "type" : "VEC3"
        },
        {
            "bufferView" : 5,
            "componentType" : 5126,
            "count" : 20,
            "type" : "VEC3"
        },
        {
            "bufferView" : 6,
            "componentType" : 5126,
            "count" : 20,
            "type" : "VEC2"
        },
        {
            "bufferView" : 7,
            "componentType" : 5123,
            "count" : 30,
            "type" : "SCALAR"
        },
        {
            "bufferView" : 8,
            "componentType" : 5126,
            "count" : 12,
            "max" : [
                0.8278645277023315,
                -0.8491631746292114,
                -0.3721979856491089
            ],
            "min" : [
                -0.8278642892837524,
                -1.0687954425811768,
                -0.827864408493042
            ],
            "type" : "VEC3"
        },
        {
            "bufferView" : 9,
            "componentType" : 5126,
            "count" : 12,
            "type" : "VEC3"
        },
        {
            "bufferView" : 10,
            "componentType" : 5126,
            "count" : 12,
            "type" : "VEC2"
        },
        {
            "bufferView" : 11,
            "componentType" : 5123,
            "count" : 30,
            "type" : "SCALAR"
        },
        {
            "bufferView" : 12,
            "componentType" : 5126,
            "count" : 195,
            "max" : [
                0.17000001668930054,
                1.7625486850738525,
                0.17000001668930054
            ],
            "min" : [
                -0.17000001668930054,
                -0.9700000286102295,
                -0.17000001668930054
            ],
            "type" : "VEC3"
        },
        {
            "bufferView" : 13,
            "componentType" : 5126,
            "count" : 195,
            "type" : "VEC3"
        },
        {
            "bufferView" : 14,
            "componentType" : 5126,
            "count" : 195,
            "type" : "VEC2"
        },
        {
            "bufferView" : 15,
            "componentType" : 5123,
            "count" : 756,
            "type" : "SCALAR"
        },
        {
            "bufferView" : 16,
            "componentType" : 5126,
            "count" : 1216,
            "max" : [
                1.144382119178772,
                0,
                1.144382119178772
            ],
            "min" : [
                -1.144382119178772,
                -0.1761043667793274,
                -1.144382119178772
            ],
            "type" : "VEC3"
        },
        {
            "bufferView" : 17,
            "componentType" : 5126,
            "count" : 1216,
            "type" : "VEC3"
        },
        {
            "bufferView" : 18,
            "componentType" : 5126,
            "count" : 1216,
            "type" : "VEC2"
        },
        {
            "bufferView" : 19,
            "componentType" : 5123,
            "count" : 2010,
            "type" : "SCALAR"
        },
        {
            "bufferView" : 20,
            "componentType" : 5126,
            "count" : 142,
            "max" : [
                0.17000001668930054,
                1.678943395614624,
                0.17000001668930054
            ],
            "min" : [
                -0.17000001668930054,
                -0.9700000286102295,
                -0.17000001668930054
            ],
            "type" : "VEC3"
        },
        {
            "bufferView" : 21,
            "componentType" : 5126,
            "count" : 142,
            "type" : "VEC3"
        },
        {
            "bufferView" : 22,
            "componentType" : 5126,
            "count" : 142,
            "type" : "VEC2"
        },
        {
            "bufferView" : 23,
            "componentType" : 5123,
            "count" : 492,
            "type" : "SCALAR"
        },
        {
            "bufferView" : 24,
            "componentType" : 5126,
            "count" : 24,
            "max" : [
                0.10000000149011612,
                0.10000000149011612,
                0.10000000149011612
            ],
            "min" : [
                -0.10000000149011612,
                -0.10000000149011612,
                -0.10000000149011612
            ],
            "type" : "VEC3"
        },
        {
            "bufferView" : 25,
            "componentType" : 5126,
            "count" : 24,
            "type" : "VEC3"
        },
        {
            "bufferView" : 26,
            "componentType" : 5126,
            "count" : 24,
            "type" : "VEC2"
        },
        {
            "bufferView" : 27,
            "componentType" : 5123,
            "count" : 36,
            "type" : "SCALAR"
        }
    ],
    "bufferViews" : [
        {
            "buffer" : 0,
            "byteLength" : 744,
            "byteOffset" : 0
        },
        {
            "buffer" : 0,
            "byteLength" : 744,
            "byteOffset" : 744
        },
        {
            "buffer" : 0,
            "byteLength" : 496,
            "byteOffset" : 1488
        },
        {
            "buffer" : 0,
            "byteLength" : 444,
            "byteOffset" : 1984
        },
        {
            "buffer" : 0,
            "byteLength" : 240,
            "byteOffset" : 2428
        },
        {
            "buffer" : 0,
            "byteLength" : 240,
            "byteOffset" : 2668
        },
        {
            "buffer" : 0,
            "byteLength" : 160,
            "byteOffset" : 2908
        },
        {
            "buffer" : 0,
            "byteLength" : 60,
            "byteOffset" : 3068
        },
        {
            "buffer" : 0,
            "byteLength" : 144,
            "byteOffset" : 3128
        },
        {
            "buffer" : 0,
            "byteLength" : 144,
            "byteOffset" : 3272
        },
        {
            "buffer" : 0,
            "byteLength" : 96,
            "byteOffset" : 3416
        },
        {
            "buffer" : 0,
            "byteLength" : 60,
            "byteOffset" : 3512
        },
        {
            "buffer" : 0,
            "byteLength" : 2340,
            "byteOffset" : 3572
        },
        {
            "buffer" : 0,
            "byteLength" : 2340,
            "byteOffset" : 5912
        },
        {
            "buffer" : 0,
            "byteLength" : 1560,
            "byteOffset" : 8252
        },
        {
            "buffer" : 0,
            "byteLength" : 1512,
            "byteOffset" : 9812
        },
        {
            "buffer" : 0,
            "byteLength" : 14592,
            "byteOffset" : 11324
        },
        {
            "buffer" : 0,
            "byteLength" : 14592,
            "byteOffset" : 25916
        },
        {
            "buffer" : 0,
            "byteLength" : 9728,
            "byteOffset" : 40508
        },
        {
            "buffer" : 0,
            "byteLength" : 4020,
            "byteOffset" : 50236
        },
        {
            "buffer" : 0,
            "byteLength" : 1704,
            "byteOffset" : 54256
        },
        {
            "buffer" : 0,
            "byteLength" : 1704,
            "byteOffset" : 55960
        },
        {
            "buffer" : 0,
            "byteLength" : 1136,
            "byteOffset" : 57664
        },
        {
            "buffer" : 0,
            "byteLength" : 984,
            "byteOffset" : 58800
        },
        {
            "buffer" : 0,
            "byteLength" : 288,
            "byteOffset" : 59784
        },
        {
            "buffer" : 0,
            "byteLength" : 288,
            "byteOffset" : 60072
        },
        {
            "buffer" : 0,
            "byteLength" : 192,
            "byteOffset" : 60360
        },
        {
            "buffer" : 0,
            "byteLength" : 72,
            "byteOffset" : 60552
        }
    ],
    "buffers" : [
        {
            "byteLength" : 60624,
            "uri" : "data:application/octet-stream;base64,"
        }
    ]
}
